<svg width="33" height="40" viewBox="0 0 33 40" fill="none" xmlns="http://www.w3.org/2000/svg">
<g clip-path="url(#clip0_6_4402)">
<path d="M10.8642 34.0697C9.05713 32.4179 8.52961 28.9471 9.28247 26.4326C10.5879 28.018 12.3967 28.5202 14.2702 28.8036C17.1625 29.2411 20.0031 29.0775 22.6899 27.7555C22.9973 27.6041 23.2813 27.4029 23.6172 27.199C23.8693 27.9305 23.9349 28.6689 23.8468 29.4204C23.6327 31.2507 22.7218 32.6646 21.2731 33.7364C20.6938 34.1651 20.0808 34.5483 19.4824 34.9525C17.6443 36.1949 17.147 37.6516 17.8377 39.7705C17.8541 39.8224 17.8688 39.874 17.9059 40C16.9674 39.5798 16.2819 38.9682 15.7596 38.1641C15.2079 37.3156 14.9454 36.3769 14.9316 35.3611C14.9246 34.8668 14.9246 34.3681 14.8582 33.8807C14.6959 32.6926 14.1381 32.1607 13.0874 32.13C12.009 32.0986 11.156 32.7652 10.9298 33.8151C10.9125 33.8956 10.8875 33.9752 10.8624 34.0688L10.8642 34.0697Z" fill="white"/>
<path d="M10.8642 34.0697C9.05713 32.4179 8.52961 28.9471 9.28247 26.4326C10.5879 28.018 12.3967 28.5202 14.2702 28.8036C17.1625 29.2411 20.0031 29.0775 22.6899 27.7555C22.9973 27.6041 23.2813 27.4029 23.6172 27.199C23.8693 27.9305 23.9349 28.6689 23.8468 29.4204C23.6327 31.2507 22.7218 32.6646 21.2731 33.7364C20.6938 34.1651 20.0808 34.5483 19.4824 34.9525C17.6443 36.1949 17.147 37.6516 17.8377 39.7705C17.8541 39.8224 17.8688 39.874 17.9059 40C16.9674 39.5798 16.2819 38.9682 15.7596 38.1641C15.2079 37.3156 14.9454 36.3769 14.9316 35.3611C14.9246 34.8668 14.9246 34.3681 14.8582 33.8807C14.6959 32.6926 14.1381 32.1607 13.0874 32.13C12.009 32.0986 11.156 32.7652 10.9298 33.8151C10.9125 33.8956 10.8875 33.9752 10.8624 34.0688L10.8642 34.0697Z" fill="url(#paint0_linear_6_4402)"/>
<path d="M0.550293 26.0137C0.550293 26.0137 5.90128 23.407 11.2672 23.407L15.3129 10.8861C15.4644 10.2806 15.9067 9.86912 16.406 9.86912C16.9052 9.86912 17.3475 10.2806 17.499 10.8861L21.5447 23.407C27.8999 23.407 32.2616 26.0137 32.2616 26.0137C32.2616 26.0137 23.1725 1.25321 23.1548 1.20353C22.8939 0.471477 22.4535 0 21.8598 0H10.9531C10.3593 0 9.93672 0.471477 9.65811 1.20353C9.63844 1.25227 0.550293 26.0137 0.550293 26.0137Z" fill="white"/>
</g>
<defs>
<linearGradient id="paint0_linear_6_4402" x1="8.95047" y1="40" x2="26.399" y2="31.7558" gradientUnits="userSpaceOnUse">
<stop stop-color="#D83333"/>
<stop offset="1" stop-color="#F041FF"/>
</linearGradient>
<clipPath id="clip0_6_4402">
<rect width="31.7757" height="40" fill="white" transform="translate(0.550293)"/>
</clipPath>
</defs>
</svg>
