<svg width="41" height="40" viewBox="0 0 41 40" fill="none" xmlns="http://www.w3.org/2000/svg">
<g clip-path="url(#clip0_6_4425)">
<mask id="mask0_6_4425" style="mask-type:luminance" maskUnits="userSpaceOnUse" x="0" y="0" width="41" height="40">
<path d="M0.362305 0.0490723H40.3132V39.9999H0.362305V0.0490723Z" fill="white"/>
</mask>
<g mask="url(#mask0_6_4425)">
<path d="M39.5606 18.2457L22.1172 0.803527C21.8782 0.564423 21.5945 0.374746 21.2822 0.245336C20.9699 0.115925 20.6352 0.0493164 20.2972 0.0493164C19.9591 0.0493164 19.6244 0.115925 19.3121 0.245336C18.9998 0.374746 18.7161 0.564423 18.4772 0.803527L14.8563 4.42614L19.4502 9.02005C19.9903 8.83663 20.5709 8.80799 21.1265 8.93738C21.682 9.06677 22.1902 9.34903 22.5937 9.75222C22.9994 10.1583 23.2826 10.6704 23.4109 11.23C23.5392 11.7895 23.5075 12.3738 23.3193 12.9161L27.7485 17.344C28.2909 17.1556 28.8755 17.1238 29.4352 17.2524C29.9949 17.381 30.507 17.6646 30.9128 18.0709C31.1971 18.3552 31.4226 18.6926 31.5765 19.064C31.7303 19.4354 31.8095 19.8335 31.8095 20.2355C31.8095 20.6375 31.7303 21.0356 31.5765 21.407C31.4226 21.7784 31.1971 22.1158 30.9128 22.4C30.3381 22.9742 29.5589 23.2967 28.7465 23.2967C27.9341 23.2967 27.155 22.9742 26.5802 22.4C26.1532 21.9724 25.8623 21.428 25.7441 20.8353C25.6259 20.2427 25.6857 19.6284 25.9159 19.0696L21.7854 14.9405V25.8087C22.2214 26.0241 22.5998 26.3402 22.8892 26.7309C23.1787 27.1216 23.3709 27.5757 23.4499 28.0555C23.529 28.5353 23.4926 29.027 23.3438 29.4899C23.1949 29.9528 22.938 30.3736 22.5941 30.7174C22.3099 31.0017 21.9724 31.2272 21.601 31.3811C21.2296 31.535 20.8316 31.6142 20.4296 31.6142C20.0275 31.6142 19.6295 31.535 19.2581 31.3811C18.8867 31.2272 18.5492 31.0017 18.265 30.7174C17.9806 30.4332 17.7551 30.0957 17.6012 29.7243C17.4473 29.3528 17.3681 28.9547 17.3681 28.5527C17.3681 28.1506 17.4473 27.7525 17.6012 27.381C17.7551 27.0096 17.9806 26.6721 18.265 26.3879C18.5514 26.1009 18.8919 25.8734 19.2667 25.7187V14.7505C18.8934 14.5967 18.5542 14.3707 18.2685 14.0855C17.9828 13.8002 17.7563 13.4613 17.6019 13.0883C17.4476 12.7152 17.3685 12.3153 17.3692 11.9116C17.3699 11.5079 17.4503 11.1082 17.6059 10.7357L13.0763 6.20527L1.11455 18.164C0.632532 18.6469 0.361816 19.3014 0.361816 19.9837C0.361816 20.6661 0.632532 21.3206 1.11455 21.8035L18.5589 39.2479C19.0418 39.7298 19.6962 40.0004 20.3785 40.0004C21.0607 40.0004 21.7151 39.7298 22.198 39.2479L39.5606 21.8853C40.0427 21.4023 40.3134 20.7478 40.3134 20.0655C40.3134 19.3831 40.0427 18.7287 39.5606 18.2457Z" fill="#F03C2E"/>
</g>
</g>
<defs>
<clipPath id="clip0_6_4425">
<rect width="40" height="40" fill="white" transform="translate(0.362305)"/>
</clipPath>
</defs>
</svg>
