<svg width="40" height="40" viewBox="0 0 40 40" fill="none" xmlns="http://www.w3.org/2000/svg">
<g clip-path="url(#clip0_6_2609)">
<path d="M0 0H40V40H0V0Z" fill="#F0DB4F"/>
<path d="M36.7262 30.4602C36.4335 28.6351 35.2433 27.1028 31.7186 25.6731C30.4943 25.1104 29.1293 24.7074 28.7224 23.7796C28.5779 23.2396 28.5589 22.9355 28.6502 22.6085C28.9125 21.5476 30.1787 21.2168 31.1825 21.521C31.8289 21.7377 32.4411 22.2359 32.8099 23.0305C34.5361 21.9127 34.5323 21.9203 35.7376 21.1522C35.2966 20.4678 35.0608 20.1522 34.7719 19.8595C33.7338 18.6998 32.3194 18.1028 30.057 18.1484C29.6654 18.1979 29.27 18.2511 28.8783 18.3005C27.7491 18.5857 26.673 19.1788 26.0418 19.9735C24.1483 22.1218 24.6882 25.8822 26.9924 27.4298C29.2624 29.1332 32.597 29.5211 33.0228 31.1142C33.4373 33.0648 31.5894 33.6959 29.7528 33.4716C28.3992 33.1903 27.6464 32.502 26.8327 31.2511C25.3346 32.118 25.3346 32.118 23.7947 33.0039C24.1597 33.8024 24.5437 34.1636 25.1559 34.8557C28.0533 37.7948 35.3042 37.6503 36.6046 33.2017C36.6578 33.0495 37.0076 32.0305 36.7262 30.4602ZM21.7452 18.3841H18.0038C18.0038 21.6161 17.9886 24.8252 17.9886 28.0571C17.9886 30.1142 18.0951 32.0001 17.7605 32.578C17.213 33.7149 15.7947 33.5742 15.1483 33.3537C14.4905 33.0305 14.1559 32.5704 13.7681 31.9203C13.6616 31.7339 13.5818 31.5895 13.5551 31.578C12.54 32.1978 11.5285 32.8214 10.5133 33.4412C11.019 34.4792 11.7643 35.3803 12.7186 35.9658C14.1445 36.8214 16.0608 37.0837 18.0647 36.6236C19.3689 36.2434 20.4943 35.4564 21.0836 34.2587C21.9354 32.6883 21.7528 30.7872 21.7452 28.6845C21.7643 25.2549 21.7452 21.8252 21.7452 18.3841Z" fill="#323330"/>
</g>
<defs>
<clipPath id="clip0_6_2609">
<rect width="40" height="40" fill="white"/>
</clipPath>
</defs>
</svg>
