<svg width="41" height="40" viewBox="0 0 41 40" fill="none" xmlns="http://www.w3.org/2000/svg">
<path d="M28.9514 14.1349L28.9374 14.1289C28.9294 14.1259 28.9214 14.1229 28.9144 14.1159C28.9029 14.1036 28.8944 14.0888 28.8895 14.0727C28.8847 14.0566 28.8836 14.0395 28.8864 14.0229L29.6594 9.29692L33.2844 12.9229L29.5144 14.5269C29.5039 14.5311 29.4927 14.5332 29.4814 14.5329H29.4664C29.4614 14.5299 29.4564 14.5259 29.4464 14.5159C29.3061 14.3597 29.1383 14.2306 28.9514 14.1349ZM34.2094 13.8469L38.0854 17.7229C38.8904 18.5289 39.2934 18.9309 39.4404 19.3969C39.4624 19.4659 39.4804 19.5349 39.4944 19.6059L30.2314 15.6829C30.2264 15.6809 30.2214 15.6789 30.2164 15.6769C30.1794 15.6619 30.1364 15.6449 30.1364 15.6069C30.1364 15.5689 30.1804 15.5509 30.2174 15.5359L30.2294 15.5309L34.2094 13.8469ZM39.3364 20.8499C39.1364 21.2259 38.7464 21.6159 38.0864 22.2769L33.7164 26.6459L28.0644 25.4689L28.0344 25.4629C27.9844 25.4549 27.9314 25.4459 27.9314 25.4009C27.9099 25.1678 27.8407 24.9415 27.728 24.7363C27.6153 24.531 27.4616 24.3512 27.2764 24.2079C27.2534 24.1849 27.2594 24.1489 27.2664 24.1159C27.2664 24.1109 27.2664 24.1059 27.2684 24.1019L28.3314 17.5759L28.3354 17.5539C28.3414 17.5039 28.3504 17.4459 28.3954 17.4459C28.6232 17.4176 28.843 17.3442 29.0422 17.23C29.2414 17.1159 29.4158 16.9632 29.5554 16.7809C29.5644 16.7709 29.5704 16.7599 29.5824 16.7539C29.6144 16.7389 29.6524 16.7539 29.6854 16.7679L39.3364 20.8499ZM32.7114 27.6509L25.5254 34.8369L26.7554 27.2769L26.7574 27.2669C26.7584 27.2569 26.7604 27.2469 26.7634 27.2379C26.7734 27.2139 26.7994 27.2039 26.8244 27.1939L26.8364 27.1889C27.1057 27.074 27.3439 26.8968 27.5314 26.6719C27.5554 26.6439 27.5844 26.6169 27.6214 26.6119C27.631 26.6104 27.6408 26.6104 27.6504 26.6119L32.7104 27.6519L32.7114 27.6509ZM24.0044 36.3579L23.1944 37.1679L14.2394 24.2259C14.2361 24.2212 14.2328 24.2165 14.2294 24.2119C14.2154 24.1929 14.2004 24.1739 14.2034 24.1519C14.2044 24.1359 14.2144 24.1219 14.2254 24.1099L14.2354 24.0969C14.2624 24.0569 14.2854 24.0169 14.3104 23.9739L14.3304 23.9389L14.3334 23.9359C14.3474 23.9119 14.3604 23.8889 14.3844 23.8759C14.4054 23.8659 14.4344 23.8699 14.4574 23.8749L24.3784 25.9209C24.4061 25.9252 24.4323 25.9366 24.4544 25.9539C24.4674 25.9669 24.4704 25.9809 24.4734 25.9969C24.5426 26.2588 24.6714 26.5011 24.8497 26.7049C25.028 26.9087 25.251 27.0685 25.5014 27.1719C25.5294 27.1859 25.5174 27.2169 25.5044 27.2499C25.4979 27.2644 25.4928 27.2795 25.4894 27.2949C25.3644 28.0549 24.2924 34.5929 24.0044 36.3579ZM22.3124 38.0489C21.7154 38.6399 21.3634 38.9529 20.9654 39.0789C20.5729 39.203 20.1518 39.203 19.7594 39.0789C19.2934 38.9309 18.8904 38.5289 18.0854 37.7229L9.09236 28.7299L11.4414 25.0869C11.4524 25.0689 11.4634 25.0529 11.4814 25.0399C11.5064 25.0219 11.5424 25.0299 11.5724 25.0399C12.1115 25.2026 12.6904 25.1733 13.2104 24.9569C13.2374 24.9469 13.2644 24.9399 13.2854 24.9589C13.2959 24.9685 13.3053 24.9792 13.3134 24.9909L22.3124 38.0489ZM8.22536 27.8629L6.16236 25.7999L10.2364 24.0619C10.2468 24.0574 10.258 24.055 10.2694 24.0549C10.3034 24.0549 10.3234 24.0889 10.3414 24.1199C10.3823 24.1829 10.4257 24.2443 10.4714 24.3039L10.4844 24.3199C10.4964 24.3369 10.4884 24.3539 10.4764 24.3699L8.22536 27.8629ZM5.24936 24.8869L2.63936 22.2769C2.19536 21.8329 1.87336 21.5109 1.64936 21.2339L9.58536 22.8799C9.59533 22.8818 9.60533 22.8834 9.61536 22.8849C9.66436 22.8929 9.71836 22.9019 9.71836 22.9479C9.71836 22.9979 9.65936 23.0209 9.60936 23.0399L9.58636 23.0499L5.24936 24.8869ZM1.19336 19.8919C1.2024 19.7238 1.23264 19.5575 1.28336 19.3969C1.43136 18.9309 1.83336 18.5289 2.63936 17.7229L5.97936 14.3829C7.51719 16.6148 9.0592 18.8438 10.6054 21.0699C10.6324 21.1059 10.6624 21.1459 10.6314 21.1759C10.4854 21.3369 10.3394 21.5129 10.2364 21.7039C10.2252 21.7285 10.208 21.7498 10.1864 21.7659C10.1734 21.7739 10.1594 21.7709 10.1444 21.7679H10.1424L1.19336 19.8919ZM6.87336 13.4889L11.3644 8.99792C11.7864 9.18293 13.3224 9.83192 14.6964 10.4119C15.7364 10.8519 16.6844 11.2519 16.9824 11.3819C17.0124 11.3939 17.0394 11.4059 17.0524 11.4359C17.0604 11.4539 17.0564 11.4769 17.0524 11.4959C16.9813 11.8201 16.9918 12.1569 17.0831 12.4759C17.1744 12.795 17.3436 13.0864 17.5754 13.3239C17.6054 13.3539 17.5754 13.3969 17.5494 13.4339L17.5354 13.4549L12.9754 20.5179C12.9634 20.5379 12.9524 20.5549 12.9324 20.5679C12.9084 20.5829 12.8744 20.5759 12.8464 20.5689C12.669 20.5225 12.4867 20.4976 12.3034 20.4949C12.1394 20.4949 11.9614 20.5249 11.7814 20.5579C11.7614 20.5609 11.7424 20.5649 11.7264 20.5529C11.7087 20.5385 11.6935 20.5213 11.6814 20.5019L6.87336 13.4889ZM12.2714 8.09092L18.0854 2.27693C18.8904 1.47193 19.2934 1.06893 19.7594 0.921925C20.1518 0.797835 20.5729 0.797835 20.9654 0.921925C21.4314 1.06893 21.8344 1.47193 22.6394 2.27693L23.8994 3.53693L19.7644 9.94092C19.7541 9.95957 19.7402 9.97591 19.7234 9.98892C19.6984 10.0059 19.6634 9.99893 19.6334 9.98892C19.3073 9.88999 18.9621 9.87198 18.6276 9.93644C18.2931 10.0009 17.9793 10.1459 17.7134 10.3589C17.6864 10.3869 17.6464 10.3709 17.6124 10.3559C17.0724 10.1209 12.8724 8.34592 12.2714 8.09092ZM24.7774 4.41493L28.5954 8.23292L27.6754 13.9309V13.9459C27.6745 13.9589 27.6718 13.9717 27.6674 13.9839C27.6574 14.0039 27.6374 14.0079 27.6174 14.0139C27.4207 14.0735 27.2354 14.1658 27.0694 14.2869C27.0622 14.292 27.0555 14.2977 27.0494 14.3039C27.0384 14.3159 27.0274 14.3269 27.0094 14.3289C26.9947 14.3294 26.9801 14.327 26.9664 14.3219L21.1484 11.8499L21.1374 11.8449C21.1004 11.8299 21.0564 11.8119 21.0564 11.7739C21.0222 11.4497 20.9163 11.1372 20.7464 10.8589C20.7184 10.8129 20.6874 10.7649 20.7114 10.7179L24.7774 4.41493ZM20.8454 13.0209L26.2994 15.3309C26.3294 15.3449 26.3624 15.3579 26.3754 15.3889C26.3806 15.4076 26.3806 15.4273 26.3754 15.4459C26.3594 15.5259 26.3454 15.6169 26.3454 15.7089V15.8619C26.3454 15.8999 26.3064 15.9159 26.2704 15.9309L26.2594 15.9349C25.3954 16.3039 14.1294 21.1079 14.1124 21.1079C14.0954 21.1079 14.0774 21.1079 14.0604 21.0909C14.0304 21.0609 14.0604 21.0189 14.0874 20.9809C14.0921 20.9743 14.0968 20.9677 14.1014 20.9609L18.5834 14.0209L18.5914 14.0089C18.6174 13.9669 18.6474 13.9199 18.6954 13.9199L18.7404 13.9269C18.8424 13.9409 18.9324 13.9539 19.0234 13.9539C19.7034 13.9539 20.3334 13.6229 20.7134 13.0569C20.7224 13.0418 20.7339 13.0283 20.7474 13.0169C20.7744 12.9969 20.8144 13.0069 20.8454 13.0209ZM14.5994 22.2059L26.8794 16.9689C26.8794 16.9689 26.8974 16.9689 26.9144 16.9859C26.9814 17.0529 27.0384 17.0979 27.0934 17.1399L27.1204 17.1569C27.1454 17.1709 27.1704 17.1869 27.1724 17.2129C27.1724 17.2229 27.1724 17.2289 27.1704 17.2379L26.1184 23.6999L26.1144 23.7259C26.1074 23.7759 26.1004 23.8329 26.0534 23.8329C25.7729 23.8519 25.5013 23.9389 25.262 24.0865C25.0228 24.2341 24.8231 24.4378 24.6804 24.6799L24.6754 24.6879C24.6614 24.7109 24.6484 24.7329 24.6254 24.7449C24.6044 24.7549 24.5774 24.7509 24.5554 24.7459L14.7624 22.7259C14.7524 22.7239 14.6104 22.2069 14.5994 22.2059Z" fill="url(#paint0_radial_6_4381)"/>
<defs>
<radialGradient id="paint0_radial_6_4381" cx="0" cy="0" r="1" gradientUnits="userSpaceOnUse" gradientTransform="translate(-0.0926036 19.4595) rotate(90) scale(3830.09 4421.99)">
<stop stop-color="#20C6B7"/>
<stop offset="1" stop-color="#4D9ABF"/>
</radialGradient>
</defs>
</svg>
