<svg width="33" height="40" viewBox="0 0 33 40" fill="none" xmlns="http://www.w3.org/2000/svg">
<g clip-path="url(#clip0_6_2653)">
<path d="M16.2333 38.3623C15.7395 38.3625 15.2543 38.2326 14.8266 37.9858L10.3503 35.3358C9.68222 34.9619 10.0077 34.8298 10.2287 34.7527C10.9392 34.5332 11.6195 34.2258 12.2537 33.8375C12.3068 33.813 12.3653 33.8024 12.4237 33.8067C12.482 33.8111 12.5383 33.8302 12.5871 33.8624L16.0267 35.9058C16.0908 35.9397 16.1621 35.9574 16.2346 35.9574C16.307 35.9574 16.3784 35.9397 16.4425 35.9058L29.8557 28.1637C29.9185 28.1261 29.9704 28.0728 30.0064 28.0091C30.0424 27.9454 30.0612 27.8734 30.061 27.8002V12.3134C30.061 12.2391 30.0419 12.166 30.0055 12.1012C29.9691 12.0364 29.9166 11.982 29.8531 11.9434L16.4398 4.20785C16.3766 4.17222 16.3052 4.15351 16.2326 4.15351C16.16 4.15351 16.0887 4.17222 16.0254 4.20785L2.61998 11.946C2.55604 11.9838 2.50294 12.0375 2.46584 12.1019C2.42874 12.1663 2.40888 12.2391 2.4082 12.3134V27.7937C2.40838 27.8667 2.42797 27.9383 2.46495 28.0013C2.50194 28.0642 2.55499 28.1162 2.61868 28.1519L6.29752 30.275C8.29121 31.2712 9.51227 30.0972 9.51227 28.918V13.6338C9.51227 13.5823 9.52241 13.5313 9.54212 13.4837C9.56183 13.4361 9.59072 13.3929 9.62714 13.3565C9.66356 13.3201 9.70679 13.2912 9.75438 13.2715C9.80196 13.2518 9.85296 13.2416 9.90447 13.2416H11.604C11.708 13.2416 11.8078 13.2829 11.8813 13.3565C11.9549 13.43 11.9962 13.5298 11.9962 13.6338V28.9193C11.9962 31.5798 10.5477 33.1028 8.02451 33.1028C6.936 33.1218 5.86455 32.8307 4.93528 32.2635L1.40939 30.241C0.981351 29.9918 0.626186 29.6346 0.379349 29.2051C0.132511 28.7757 0.00263816 28.289 0.00269484 27.7937V12.3134C0.00142256 11.8173 0.130746 11.3296 0.37767 10.8993C0.624594 10.469 0.980419 10.1113 1.40939 9.86212L14.824 2.1174C15.2561 1.88099 15.7407 1.75708 16.2333 1.75708C16.7258 1.75708 17.2105 1.88099 17.6426 2.1174L31.0559 9.86212C31.4839 10.1109 31.8391 10.4676 32.0862 10.8966C32.3332 11.3255 32.4635 11.8118 32.4639 12.3069V27.7937C32.4631 28.289 32.3328 28.7755 32.0858 29.2049C31.8388 29.6342 31.4837 29.9914 31.0559 30.241L17.6426 37.9858C17.2141 38.233 16.728 38.3629 16.2333 38.3623Z" fill="#00D486"/>
<path d="M13.6892 22.6126C13.6892 22.5086 13.7305 22.4088 13.8041 22.3353C13.8776 22.2617 13.9774 22.2204 14.0814 22.2204H15.8162C15.9089 22.2207 15.9985 22.2538 16.0691 22.3139C16.1397 22.3739 16.1868 22.4571 16.2019 22.5485C16.4634 24.3147 17.2478 25.2051 20.7946 25.2051C23.6197 25.2051 24.8238 24.5658 24.8238 23.0662C24.8238 22.2021 24.4826 21.5602 20.0912 21.1301C16.4202 20.7666 14.1507 19.9534 14.1507 17.0198C14.1507 14.3135 16.432 12.699 20.256 12.699C24.5532 12.699 26.6802 14.1907 26.9495 17.391C26.9536 17.4445 26.9468 17.4982 26.9293 17.5488C26.9119 17.5995 26.8842 17.6461 26.8481 17.6856C26.8119 17.7252 26.7681 17.757 26.7192 17.7789C26.6703 17.8009 26.6174 17.8126 26.5639 17.8133H24.8173C24.7296 17.8121 24.645 17.7816 24.5767 17.7266C24.5085 17.6716 24.4606 17.5954 24.4407 17.51C24.0237 15.6523 23.0027 15.0587 20.2573 15.0587C17.172 15.0587 16.8137 16.1334 16.8137 16.9387C16.8137 17.914 17.2373 18.199 21.4025 18.7494C25.5245 19.2945 27.4829 20.0659 27.4829 22.963C27.4829 25.8862 25.046 27.5596 20.7959 27.5596C14.9194 27.5674 13.6892 24.873 13.6892 22.6126Z" fill="#00D486"/>
</g>
<defs>
<clipPath id="clip0_6_2653">
<rect width="32.4638" height="40" fill="white"/>
</clipPath>
</defs>
</svg>
