<svg width="40" height="40" viewBox="0 0 40 40" fill="none" xmlns="http://www.w3.org/2000/svg">
<g clip-path="url(#clip0_6_2657)">
<path d="M39.0142 23.95C38.7813 23.2457 38.1713 22.7551 37.3824 22.6374C37.0104 22.5819 36.5844 22.6056 36.0802 22.7094C35.2015 22.8904 34.5496 22.9593 34.0738 22.9727C35.8696 19.9449 37.3299 16.4922 38.1705 13.2421C39.5299 7.98674 38.8035 5.59258 37.9546 4.50966C35.7082 1.64328 32.4307 0.103433 28.4768 0.0563165C26.3675 0.0305615 24.5158 0.446429 23.5499 0.74549C22.6505 0.587021 21.6835 0.498545 20.6688 0.482183C18.7668 0.451883 17.0863 0.865933 15.6503 1.71691C14.8553 1.44845 13.5794 1.07 12.106 0.828512C8.64052 0.260387 5.84747 0.70307 3.80449 2.14429C1.33064 3.88927 0.183841 6.92108 0.395937 11.1555C0.463298 12.4999 1.2164 16.5904 2.4022 20.4697C3.0837 22.6995 3.81041 24.5511 4.56215 25.9737C5.62824 27.9909 6.76897 29.1789 8.04959 29.6055C8.76735 29.8442 10.0715 30.0115 11.4431 28.8707C11.617 29.081 11.849 29.2899 12.1568 29.484C12.5477 29.7302 13.0258 29.9314 13.5032 30.0506C15.2238 30.4801 16.8355 30.3727 18.2105 29.7706C18.219 30.0148 18.2255 30.2481 18.2309 30.4496C18.24 30.7764 18.2492 31.0968 18.2611 31.3965C18.3426 33.4227 18.4807 34.9981 18.8897 36.1004C18.9121 36.161 18.9423 36.2535 18.9742 36.3515C19.1782 36.9754 19.5194 38.0198 20.3876 38.8377C21.2865 39.6851 22.3738 39.9449 23.3696 39.9449C23.8691 39.9449 24.3456 39.8795 24.7636 39.7901C26.2534 39.4712 27.9455 38.9855 29.1695 37.245C30.3268 35.5997 30.8893 33.1216 30.9911 29.217C31.0043 29.1066 31.0165 29.0012 31.0281 28.9007L31.0524 28.6944L31.3251 28.7183L31.3953 28.723C32.9127 28.7921 34.7682 28.4707 35.9077 27.9422C36.8081 27.5249 39.6936 26.0037 39.0142 23.95Z" fill="black"/>
<path d="M36.4194 24.3494C31.9075 25.2789 31.5972 23.7534 31.5972 23.7534C36.361 16.6946 38.3526 7.73444 36.6341 5.54147C31.9456 -0.440504 23.8296 2.38861 23.6941 2.46193L23.6506 2.46981C22.7591 2.28498 21.7616 2.17499 20.6403 2.15666C18.5988 2.12333 17.0501 2.69115 15.875 3.58106C15.875 3.58106 1.39694 -2.37501 2.07039 11.0718C2.21361 13.9325 6.17637 32.7171 10.9029 27.0433C12.6304 24.9685 14.2997 23.2143 14.2997 23.2143C15.1287 23.7642 16.1212 24.0448 17.1617 23.944L17.2425 23.8756C17.2173 24.1331 17.2289 24.385 17.2748 24.6833C16.0572 26.0419 16.4151 26.2803 13.981 26.7807C11.5179 27.2876 12.9648 28.19 13.9095 28.426C15.0548 28.7119 17.7043 29.117 19.4946 26.6144L19.4233 26.8999C19.9002 27.2816 20.2352 29.382 20.1791 31.2862C20.123 33.1902 20.0855 34.4975 20.4613 35.5186C20.8374 36.5397 21.212 38.8372 24.4119 38.1526C27.0856 37.5804 28.4712 36.0977 28.664 33.6243C28.8007 31.866 29.1103 32.1259 29.1297 30.5538L29.3781 29.8097C29.6644 27.4261 29.4236 26.6571 31.0708 27.0148L31.4713 27.0499C32.6835 27.1049 34.2704 26.8551 35.2018 26.4229C37.2071 25.4936 38.3966 23.9418 36.4191 24.3494H36.4194Z" fill="#336791"/>
<path d="M16.7226 12.3509C16.316 12.2944 15.9478 12.3467 15.7615 12.4876C15.6568 12.5668 15.6244 12.6586 15.6156 12.7218C15.5922 12.8892 15.7096 13.0743 15.7819 13.1698C15.9861 13.4401 16.2843 13.6258 16.5796 13.6667C16.6223 13.6728 16.665 13.6755 16.7073 13.6755C17.1996 13.6755 17.6473 13.2926 17.6868 13.0101C17.7361 12.6562 17.2216 12.4202 16.7226 12.3509ZM30.1924 12.3621C30.1535 12.0847 29.6593 12.0057 29.1902 12.0708C28.7217 12.1359 28.2674 12.3471 28.3054 12.6251C28.3357 12.8413 28.7267 13.2104 29.1894 13.2104C29.2285 13.2104 29.268 13.2078 29.3077 13.2022C29.6166 13.1595 29.8433 12.9636 29.951 12.8507C30.1149 12.6786 30.2098 12.4868 30.1924 12.3621Z" fill="white"/>
<path d="M37.921 24.2439C37.749 23.7244 37.1952 23.5573 36.2752 23.747C33.5436 24.3099 32.5654 23.92 32.2442 23.6838C34.3674 20.4538 36.1141 16.5493 37.0564 12.9065C37.5027 11.1809 37.7493 9.57838 37.7694 8.27214C37.7917 6.8385 37.5472 5.78497 37.0429 5.1414C35.0096 2.54696 32.0254 1.15528 28.4131 1.1171C25.9297 1.08923 23.8315 1.72386 23.4248 1.90233C22.5682 1.68962 21.6344 1.55903 20.6177 1.54236C18.7535 1.51221 17.142 1.95793 15.8078 2.86647C15.2283 2.65104 13.7305 2.13761 11.8989 1.84294C8.73234 1.3339 6.21602 1.71962 4.42033 2.98994C2.27768 4.50585 1.28851 7.21558 1.48012 11.0437C1.5446 12.3316 2.2795 16.2936 3.4392 20.0879C4.96575 25.082 6.62519 27.9091 8.37111 28.4907C8.57547 28.5588 8.81108 28.6063 9.07097 28.6063C9.70786 28.6063 10.4887 28.3197 11.3012 27.3443C12.2921 26.1573 13.3171 24.999 14.375 23.871C15.0614 24.2389 15.8154 24.4443 16.5866 24.4649C16.5881 24.4851 16.59 24.5052 16.5919 24.5252C16.4591 24.6833 16.3291 24.8436 16.202 25.0062C15.6676 25.6836 15.5564 25.8246 13.8364 26.1782C13.3472 26.2791 12.0477 26.5465 12.0286 27.4561C12.008 28.45 13.5647 28.8674 13.7421 28.9116C14.3602 29.0661 14.9556 29.1423 15.5235 29.1423C16.9046 29.1423 18.1199 28.689 19.0912 27.812C19.0613 31.355 19.2092 34.8462 19.6352 35.9098C19.9842 36.7807 20.8365 38.9088 23.5288 38.9086C23.9239 38.9086 24.3587 38.8627 24.8371 38.7603C27.6469 38.1589 28.8672 36.9187 29.3392 34.1846C29.5918 32.7233 30.0252 29.2341 30.2291 27.3625C30.6594 27.4966 31.2133 27.5579 31.8121 27.5578C33.061 27.5578 34.5021 27.2928 35.4059 26.8739C36.4212 26.4031 38.2533 25.2477 37.921 24.2439ZM31.2295 11.5967C31.2203 12.1492 31.1441 12.6508 31.0634 13.1744C30.9765 13.7375 30.8866 14.3197 30.864 15.0265C30.8417 15.7143 30.9278 16.4294 31.0109 17.121C31.179 18.5178 31.3515 19.9558 30.6838 21.3748C30.5729 21.1785 30.4741 20.9757 30.388 20.7674C30.305 20.5665 30.1247 20.2438 29.8752 19.7972C28.9043 18.0586 26.6309 13.9872 27.7947 12.3258C28.1414 11.8313 29.0212 11.3229 31.2295 11.5967ZM28.5527 2.23593C31.7893 2.30729 34.3497 3.51641 36.1623 5.82951C37.5526 7.60373 36.0217 15.6767 31.5897 22.6413C31.5451 22.5847 31.5003 22.5283 31.4553 22.4721L31.3991 22.4021C32.5444 20.5133 32.3205 18.6446 32.1211 16.9878C32.0392 16.3079 31.9618 15.6656 31.9816 15.0624C32.0019 14.423 32.0865 13.8746 32.1685 13.3444C32.2691 12.6909 32.3715 12.0148 32.3432 11.2178C32.3643 11.1341 32.3728 11.0354 32.3618 10.9181C32.2897 10.1538 31.4158 7.86627 29.6347 5.79588C28.6604 4.66341 27.2396 3.39612 25.2996 2.54135C26.1341 2.36864 27.2751 2.2076 28.5527 2.23593ZM10.4414 26.6305C9.54629 27.7052 8.9282 27.4992 8.72491 27.4316C7.40045 26.9904 5.86359 24.1949 4.50863 19.7621C3.33619 15.9264 2.65105 12.0693 2.59674 10.9878C2.4256 7.56721 3.25593 5.18336 5.06481 3.90228C8.00867 1.81764 12.8486 3.06539 14.7935 3.69821C14.7655 3.72578 14.7364 3.75153 14.7088 3.77956C11.5174 6.99803 11.5931 12.4969 11.6009 12.8331C11.6006 12.9627 11.6116 13.1464 11.6264 13.3989C11.6814 14.3238 11.7836 16.0452 11.5105 17.9945C11.2569 19.806 11.8161 21.579 13.0445 22.859C13.1706 22.9901 13.3031 23.1149 13.4415 23.2329C12.8948 23.8177 11.7064 25.1109 10.4414 26.6305ZM13.8518 22.0865C12.8617 21.0548 12.412 19.6198 12.6179 18.149C12.9061 16.0898 12.7998 14.2964 12.7426 13.3328C12.7345 13.198 12.7274 13.0798 12.7233 12.9867C13.1895 12.5738 15.3501 11.4179 16.8909 11.7704C17.5939 11.9312 18.0224 12.4093 18.2005 13.2316C19.1223 17.4893 18.3225 19.2638 17.6798 20.6898C17.5474 20.9836 17.4222 21.2613 17.3154 21.5485L17.2326 21.7706C17.0229 22.3321 16.8278 22.8542 16.7069 23.3499C15.6543 23.3468 14.6304 22.8978 13.8518 22.0864V22.0865ZM14.0133 27.8284C13.706 27.7517 13.4296 27.6185 13.2674 27.5081C13.4028 27.4445 13.6439 27.3578 14.062 27.2718C16.0855 26.8559 16.398 26.5623 17.0804 25.6971C17.2368 25.4986 17.4142 25.2738 17.6598 24.9999L17.6601 24.9996C18.0259 24.5905 18.1932 24.6599 18.4966 24.7856C18.7426 24.8871 18.9821 25.195 19.0792 25.5338C19.1252 25.6937 19.1768 25.9973 19.0079 26.2337C17.5824 28.2268 15.5051 28.2012 14.0133 27.8284ZM24.6028 37.6686C22.1274 38.1982 21.251 36.937 20.6734 35.4952C20.3007 34.5644 20.1174 30.3669 20.2474 25.7315C20.2491 25.6698 20.2403 25.6103 20.2233 25.5542C20.2081 25.4435 20.185 25.334 20.1541 25.2267C19.9608 24.5522 19.4898 23.988 18.9246 23.7541C18.7001 23.6612 18.288 23.4908 17.7928 23.6173C17.8984 23.1828 18.0815 22.6921 18.2801 22.1608L18.3634 21.9373C18.4572 21.6853 18.5749 21.4243 18.6993 21.148C19.3719 19.656 20.2929 17.6124 19.2933 12.9958C18.9189 11.2665 17.6684 10.4221 15.7729 10.6183C14.6366 10.7357 13.5969 11.1935 13.0783 11.4561C12.9668 11.5124 12.8649 11.567 12.7696 11.62C12.9143 9.87774 13.4611 6.6217 15.5065 4.56161C16.7944 3.26477 18.5095 2.62422 20.5992 2.65877C24.7167 2.72603 27.3572 4.83612 28.8473 6.59458C30.1314 8.10974 30.8267 9.6361 31.1042 10.4593C29.0174 10.2474 27.5981 10.6587 26.8787 11.6859C25.3134 13.9202 27.7349 18.2568 28.8987 20.3409C29.1122 20.7229 29.2964 21.053 29.3543 21.1933C29.7333 22.1105 30.224 22.7228 30.5822 23.1697C30.692 23.3067 30.7985 23.4396 30.8795 23.5556C30.2475 23.7376 29.1122 24.158 29.2157 26.2594C29.1322 27.3139 28.5389 32.2507 28.2374 33.9949C27.8395 36.2992 26.9903 37.1574 24.6028 37.6687V37.6686ZM34.9351 25.8613C34.2888 26.1608 33.2073 26.3855 32.1798 26.4338C31.045 26.4868 30.4673 26.3069 30.3314 26.1961C30.2676 24.8865 30.7557 24.7497 31.2723 24.6049C31.3535 24.5822 31.4327 24.5599 31.5091 24.5332C31.5566 24.5719 31.6086 24.6102 31.6657 24.6478C32.5778 25.2489 34.2046 25.3138 36.5014 24.8403L36.5266 24.8353C36.2168 25.1245 35.6867 25.5127 34.9351 25.8613Z" fill="white"/>
</g>
<defs>
<clipPath id="clip0_6_2657">
<rect width="38.8387" height="40" fill="white" transform="translate(0.325928)"/>
</clipPath>
</defs>
</svg>
