<svg width="36" height="40" viewBox="0 0 36 40" fill="none" xmlns="http://www.w3.org/2000/svg">
<g clip-path="url(#clip0_6_2625)">
<path d="M35.5504 20.0035C35.5504 17.678 32.6396 15.4742 28.1769 14.1075C29.2068 9.55675 28.7491 5.93616 26.7323 4.77699C26.2674 4.50509 25.7239 4.3763 25.1303 4.3763V5.97193C25.4592 5.97193 25.7239 6.03633 25.9456 6.15797C26.9182 6.71609 27.3402 8.84122 27.0112 11.5745C26.9325 12.2471 26.8038 12.9555 26.6464 13.6782C25.2447 13.3348 23.7142 13.07 22.1051 12.8983C21.1396 11.5745 20.1383 10.3725 19.1299 9.32062C21.4614 7.15256 23.6499 5.96478 25.1374 5.96478V4.36914C23.1707 4.36914 20.5961 5.77158 17.9928 8.20439C15.3896 5.78589 12.8149 4.39776 10.8482 4.39776V5.9934C12.3286 5.9934 14.5242 7.17403 16.8557 9.32778C15.8544 10.3796 14.8532 11.5745 13.902 12.8983C12.2857 13.07 10.7552 13.3348 9.3535 13.6854C9.18901 12.9698 9.06743 12.2758 8.98161 11.6103C8.64547 8.87699 9.06028 6.75186 10.0258 6.18659C10.2403 6.0578 10.5192 6.00055 10.8482 6.00055V4.40492C10.2475 4.40492 9.70393 4.53371 9.23192 4.80562C7.22227 5.96478 6.77171 9.57821 7.80872 14.1147C3.36033 15.4885 0.463867 17.6852 0.463867 20.0035C0.463867 22.329 3.37463 24.5328 7.83733 25.8995C6.80747 30.4503 7.26519 34.0709 9.28198 35.23C9.74684 35.5019 10.2904 35.6307 10.8911 35.6307C12.8579 35.6307 15.4325 34.2283 18.0357 31.7955C20.639 34.214 23.2136 35.6021 25.1803 35.6021C25.7811 35.6021 26.3246 35.4733 26.7966 35.2014C28.8063 34.0423 29.2568 30.4288 28.2198 25.8923C32.6539 24.5257 35.5504 22.3218 35.5504 20.0035ZM26.2388 15.2309C25.9742 16.154 25.6452 17.1056 25.2733 18.0573C24.9801 17.4848 24.6726 16.9124 24.3364 16.34C24.0074 15.7676 23.657 15.2094 23.3066 14.6656C24.3221 14.8159 25.3019 15.0019 26.2388 15.2309ZM22.9633 22.8513C22.4054 23.8173 21.8333 24.7332 21.2397 25.5847C20.1741 25.6777 19.0942 25.7278 18.0071 25.7278C16.9272 25.7278 15.8473 25.6777 14.7888 25.5918C14.1952 24.7403 13.6159 23.8316 13.0581 22.8728C12.5146 21.9355 12.0211 20.9838 11.5705 20.025C12.014 19.0662 12.5146 18.1074 13.051 17.17C13.6088 16.204 14.1809 15.2882 14.7745 14.4367C15.8401 14.3437 16.9201 14.2936 18.0071 14.2936C19.087 14.2936 20.1669 14.3437 21.2254 14.4295C21.819 15.281 22.3983 16.1897 22.9561 17.1485C23.4997 18.0859 23.9931 19.0375 24.4437 19.9964C23.9931 20.9552 23.4997 21.914 22.9633 22.8513ZM25.2733 21.9211C25.6595 22.88 25.9885 23.8388 26.2602 24.769C25.3234 24.9979 24.3364 25.1911 23.3137 25.3414C23.6642 24.7904 24.0146 24.2252 24.3436 23.6456C24.6726 23.0731 24.9801 22.4936 25.2733 21.9211ZM18.0214 29.5559C17.3563 28.869 16.6912 28.1033 16.0332 27.2662C16.6769 27.2948 17.3349 27.3163 18 27.3163C18.6722 27.3163 19.3373 27.3019 19.9882 27.2662C19.3445 28.1033 18.6794 28.869 18.0214 29.5559ZM12.7005 25.3414C11.685 25.1911 10.7052 25.0051 9.7683 24.7761C10.0329 23.8531 10.3619 22.9014 10.7338 21.9498C11.027 22.5222 11.3345 23.0946 11.6707 23.667C12.0068 24.2395 12.3501 24.7976 12.7005 25.3414ZM17.9857 10.4512C18.6508 11.1381 19.3159 11.9037 19.9739 12.7409C19.3302 12.7122 18.6722 12.6908 18.0071 12.6908C17.3349 12.6908 16.6697 12.7051 16.0189 12.7409C16.6626 11.9037 17.3277 11.1381 17.9857 10.4512ZM12.6934 14.6656C12.3429 15.2166 11.9925 15.7819 11.6635 16.3615C11.3345 16.9339 11.027 17.5063 10.7338 18.0787C10.3476 17.1199 10.0186 16.1611 9.74684 15.2309C10.6837 15.0091 11.6707 14.8159 12.6934 14.6656ZM6.22103 23.6241C3.68931 22.5437 2.05156 21.1269 2.05156 20.0035C2.05156 18.8801 3.68931 17.4562 6.22103 16.3829C6.83608 16.1182 7.50834 15.8821 8.20206 15.6602C8.60972 17.0627 9.1461 18.5224 9.81121 20.0178C9.15325 21.5061 8.62402 22.9587 8.22352 24.3539C7.5155 24.1321 6.84323 23.8889 6.22103 23.6241ZM10.0687 33.8491C9.09604 33.2909 8.67408 31.1658 9.00306 28.4325C9.08173 27.7599 9.21046 27.0515 9.3678 26.3288C10.7695 26.6723 12.3 26.937 13.9092 27.1087C14.8747 28.4325 15.8759 29.6346 16.8843 30.6864C14.5528 32.8545 12.3644 34.0423 10.8768 34.0423C10.555 34.0351 10.2832 33.9707 10.0687 33.8491ZM27.0326 28.3967C27.3688 31.13 26.954 33.2552 25.9885 33.8204C25.7739 33.9492 25.495 34.0065 25.166 34.0065C23.6856 34.0065 21.49 32.8258 19.1586 30.6721C20.1598 29.6203 21.161 28.4253 22.1122 27.1016C23.7285 26.9299 25.259 26.6651 26.6607 26.3145C26.8252 27.0372 26.954 27.7313 27.0326 28.3967ZM29.7861 23.6241C29.171 23.8889 28.4987 24.125 27.805 24.3468C27.3974 22.9444 26.861 21.4847 26.1959 19.9892C26.8538 18.5009 27.3831 17.0484 27.7836 15.6531C28.4916 15.8749 29.1639 16.1182 29.7932 16.3829C32.3249 17.4634 33.9627 18.8801 33.9627 20.0035C33.9555 21.1269 32.3178 22.5508 29.7861 23.6241Z" fill="#61DAFB"/>
<path d="M18 23.2736C19.8051 23.2736 21.2684 21.8096 21.2684 20.0036C21.2684 18.1977 19.8051 16.7336 18 16.7336C16.195 16.7336 14.7317 18.1977 14.7317 20.0036C14.7317 21.8096 16.195 23.2736 18 23.2736Z" fill="#61DAFB"/>
</g>
<defs>
<clipPath id="clip0_6_2625">
<rect width="35.0865" height="40" fill="white" transform="translate(0.463867)"/>
</clipPath>
</defs>
</svg>
