<svg width="54" height="40" viewBox="0 0 54 40" fill="none" xmlns="http://www.w3.org/2000/svg">
<g clip-path="url(#clip0_6_2623)">
<path d="M45.9247 22.9792C44.0601 22.9898 42.4456 23.4376 41.0914 24.1044C40.5914 23.1148 40.0914 22.2501 40.0082 21.6044C39.9144 20.8544 39.7998 20.3959 39.9144 19.5002C40.0289 18.6042 40.5497 17.3334 40.5497 17.2292C40.5392 17.1355 40.435 16.6772 39.3622 16.6667C38.2894 16.6563 37.3622 16.8751 37.2581 17.1563C37.1539 17.4376 36.9456 18.0834 36.8101 18.7501C36.6226 19.7292 34.6643 23.198 33.5497 25.0209C33.1851 24.3126 32.8726 23.6876 32.81 23.1875C32.7164 22.4376 32.6017 21.9791 32.7164 21.0834C32.831 20.1875 33.3518 18.9167 33.3518 18.8126C33.3414 18.7188 33.2372 18.2605 32.1644 18.2501C31.0914 18.2397 30.1644 18.4584 30.0602 18.7397C29.9561 19.0209 29.8415 19.6876 29.6123 20.3334C29.3935 20.9792 26.7893 26.7709 26.1122 28.2813C25.7685 29.0522 25.4665 29.6667 25.2476 30.0834C25.0289 30.5001 25.2372 30.1147 25.2164 30.1563C25.0289 30.5105 24.9247 30.7084 24.9247 30.7084V30.7189C24.7789 30.9794 24.6226 31.2292 24.5496 31.2292C24.4975 31.2292 24.3934 30.5313 24.5705 29.5731C24.9559 27.5626 25.8934 24.4273 25.8831 24.3127C25.8831 24.2606 26.06 23.7084 25.2788 23.4273C24.5184 23.146 24.2476 23.6148 24.185 23.6148C24.1225 23.6148 24.0705 23.7814 24.0705 23.7814C24.0705 23.7814 24.9142 20.2503 22.4559 20.2503C20.9142 20.2503 18.7892 21.9274 17.7371 23.4586C17.0705 23.8232 15.6538 24.5939 14.1538 25.417C13.5809 25.7295 12.9871 26.0628 12.4246 26.3649L12.3101 26.2397C9.33098 23.0626 3.82056 20.8126 4.04973 16.5417C4.13306 14.9897 4.67473 10.8959 14.6332 5.93758C22.7894 1.87508 29.3207 2.98967 30.456 5.46883C32.0706 9.0105 26.9664 15.5938 18.4873 16.5417C15.2582 16.9063 13.5601 15.6563 13.1332 15.1876C12.6852 14.698 12.6227 14.6772 12.4561 14.7709C12.1852 14.9167 12.3519 15.3542 12.4561 15.6147C12.7061 16.2709 13.7477 17.4376 15.5186 18.0209C17.0706 18.5313 20.8623 18.8126 25.4457 17.0417C30.5811 15.0522 34.5915 9.53133 33.4144 4.91675C32.2165 0.218833 24.4248 -1.32283 17.0602 1.29175C12.6747 2.85425 7.92473 5.29175 4.50806 8.48967C0.445561 12.2813 -0.200273 15.5938 0.0705608 16.9688C1.01858 21.8751 7.77889 25.073 10.4872 27.4376C10.3518 27.5104 10.2268 27.5833 10.1122 27.6459C8.75806 28.3125 3.60181 31.0105 2.31014 33.8646C0.851811 37.0937 2.53931 39.4168 3.66431 39.7293C7.14348 40.698 10.706 38.9584 12.6331 36.0938C14.5496 33.2293 14.3206 29.5105 13.4351 27.8126L13.4038 27.7501L14.4663 27.1251C15.1539 26.7188 15.831 26.3438 16.4246 26.0208C16.0914 26.9271 15.8517 28 15.7268 29.5625C15.581 31.3959 16.331 33.7708 17.3206 34.7083C17.7581 35.1145 18.2789 35.125 18.6018 35.125C19.7476 35.125 20.2685 34.177 20.8414 33.0416C21.5497 31.6562 22.1747 30.0521 22.1747 30.0521C22.1747 30.0521 21.3935 34.3958 23.5289 34.3958C24.3101 34.3958 25.0914 33.3854 25.4456 32.8646V32.875C25.4456 32.875 25.4664 32.8437 25.5081 32.7708C25.5518 32.7062 25.5935 32.6402 25.6331 32.573V32.5522C25.9456 32.0105 26.6435 30.7709 27.6851 28.7188C29.0288 26.073 30.3206 22.7605 30.3206 22.7605C30.3206 22.7605 30.4456 23.573 30.831 24.9063C31.06 25.6981 31.56 26.5626 31.9455 27.4063C31.633 27.8438 31.4455 28.0939 31.4455 28.0939L31.4559 28.1044C31.206 28.4377 30.9246 28.792 30.6331 29.146C29.5706 30.4169 28.2997 31.8649 28.1331 32.2815C27.9351 32.771 27.9768 33.1356 28.3622 33.4274C28.6435 33.6357 29.1435 33.6773 29.6747 33.6357C30.6331 33.5731 31.2997 33.3336 31.6331 33.1877C32.1539 33.0002 32.7476 32.7189 33.3206 32.3023C34.3622 31.5315 34.9976 30.4378 34.9351 28.9795C34.9039 28.1774 34.6435 27.3857 34.3206 26.6357C34.4143 26.5003 34.5082 26.3648 34.6018 26.219C36.2476 23.8127 37.5185 21.167 37.5185 21.167C37.5185 21.167 37.6435 21.9795 38.0289 23.3128C38.2267 23.9899 38.6226 24.7296 38.9768 25.4587C37.4351 26.7191 36.4664 28.1775 36.1331 29.1358C35.5185 30.9066 35.9976 31.7087 36.9039 31.8962C37.31 31.9796 37.8935 31.7921 38.3309 31.6046C38.8725 31.4275 39.5288 31.1253 40.1331 30.6775C41.1747 29.9066 42.1747 28.8337 42.1226 27.3858C42.0914 26.7191 41.9143 26.0629 41.6747 25.4379C42.9872 24.8962 44.685 24.5837 46.8414 24.8441C51.4768 25.3858 52.3935 28.2816 52.2165 29.49C52.0394 30.6984 51.0707 31.365 50.7476 31.5733C50.4247 31.7712 50.3206 31.8443 50.3518 31.99C50.3935 32.2088 50.5393 32.1983 50.8206 32.1568C51.206 32.0942 53.2581 31.1672 53.3414 28.9381C53.4664 26.0731 50.7476 22.9481 45.9247 22.9792ZM10.1747 35.0313C8.64348 36.7084 6.48723 37.3438 5.57056 36.8022C4.58098 36.2293 4.96629 33.7605 6.85181 31.9793C7.99764 30.8959 9.48723 29.8959 10.4664 29.2813C10.6851 29.1459 11.0185 28.9481 11.4143 28.7084C11.4768 28.6669 11.5185 28.6459 11.5185 28.6459C11.5914 28.6043 11.6747 28.5522 11.7581 28.5001C12.456 31.0418 11.7893 33.2709 10.1747 35.0313ZM21.3726 27.4168C20.8414 28.7188 19.7164 32.0626 19.0393 31.8751C18.4559 31.7188 18.1018 29.1876 18.9246 26.6876C19.3413 25.4271 20.2267 23.9272 20.7475 23.3437C21.5914 22.4062 22.508 22.0937 22.7372 22.4791C23.0081 22.9792 21.706 26.6043 21.3726 27.4168ZM30.6122 31.8334C30.3831 31.9481 30.1747 32.0313 30.081 31.9689C30.0081 31.9273 30.1746 31.771 30.1746 31.771C30.1746 31.771 31.3309 30.5314 31.7892 29.9585C32.0496 29.6253 32.3621 29.2399 32.6955 28.8023V28.9273C32.6956 30.4272 31.2581 31.4272 30.6122 31.8334ZM37.7371 30.2084C37.5705 30.0834 37.5914 29.698 38.1538 28.4897C38.3726 28.0105 38.8725 27.2084 39.7371 26.448C39.8413 26.7605 39.9039 27.0625 39.8934 27.3438C39.8831 29.2188 38.5497 29.9168 37.7371 30.2084Z" fill="#CF649A"/>
</g>
<defs>
<clipPath id="clip0_6_2623">
<rect width="53.3333" height="40" fill="white" transform="translate(0.0288086)"/>
</clipPath>
</defs>
</svg>
