<svg width="41" height="40" viewBox="0 0 41 40" fill="none" xmlns="http://www.w3.org/2000/svg">
<g clip-path="url(#clip0_6_4431)">
<path d="M17.9879 39.9743C14.2437 39.7044 10.5431 38.762 8.27347 37.5003C6.98072 36.7816 5.99582 35.8985 5.60934 35.1113L5.37939 34.6429V19.9526V5.26229L5.56135 4.89284C6.37447 3.24198 8.96953 1.75373 12.5921 0.860754C13.8218 0.557611 15.597 0.255728 17.0452 0.103499C18.5241 -0.0519867 22.4439 -0.0283307 23.9191 0.145212C27.8398 0.605841 31.176 1.63707 33.232 3.02387C34.0249 3.55867 34.8385 4.41441 35.1142 5.00344L35.3505 5.50846L35.3303 20.1544L35.31 34.8003L35.1203 35.1857C35.016 35.3976 34.7009 35.8147 34.42 36.1123C32.7104 37.9246 29.0433 39.2652 24.2333 39.8364C23.2529 39.9529 18.9938 40.0468 17.9879 39.9743ZM24.8879 27.3867C24.8735 27.3491 24.3138 26.8505 23.6441 26.2785C22.9744 25.7066 22.3976 25.2118 22.3623 25.1789C22.3271 25.146 22.4508 25.0297 22.6373 24.9204C22.8238 24.8111 23.1811 24.507 23.4313 24.2446C24.163 23.4773 24.5082 22.5296 24.5082 21.2881C24.5082 20.0659 24.1359 19.0798 23.3901 18.3271C22.6385 17.5684 21.7755 17.2423 20.5188 17.2423C18.5816 17.2423 17.0938 18.3727 16.619 20.2053C16.4556 20.8356 16.4565 22.1093 16.6207 22.6682C17.0489 24.1262 18.2152 25.185 19.6667 25.4336C20.1579 25.5178 20.2245 25.5541 20.5594 25.9202C20.7584 26.1378 21.1668 26.5721 21.4669 26.8853L22.0127 27.4549H23.4634C24.2613 27.4549 24.9023 27.4242 24.8879 27.3867ZM19.9128 23.3247C19.5635 23.1426 19.4315 23.0013 19.2323 22.5964C19.0785 22.2837 19.0522 22.1058 19.0505 21.3667C19.0488 20.6157 19.0726 20.4534 19.2333 20.1273C19.496 19.5936 19.8582 19.341 20.4183 19.3005C21.1981 19.2439 21.6481 19.6266 21.884 20.5462C22.1732 21.6738 21.8552 22.8725 21.1613 23.2704C20.7973 23.4791 20.2542 23.5027 19.9128 23.3247ZM13.4824 25.4176C15.0034 25.1292 15.8669 24.2446 15.8669 22.9748C15.8669 21.8483 15.3094 21.1919 13.7688 20.5042C12.8869 20.1105 12.5674 19.8633 12.5674 19.5746C12.5674 19.3353 12.8706 19.073 13.2235 19.0071C13.5681 18.9428 14.482 19.1015 15.0217 19.3195L15.4741 19.5023V18.5009V17.4995L14.9831 17.3906C14.6796 17.3233 14.042 17.2829 13.3137 17.2849C12.2821 17.2849 12.0801 17.3101 11.6919 17.4642C10.558 17.9144 10.0199 18.6813 10.0285 19.8348C10.0365 20.9147 10.6062 21.5883 12.024 22.1943C12.8606 22.5518 13.1959 22.8241 13.1959 23.1458C13.1959 23.8296 12.0567 23.9137 10.8506 23.3191C10.5202 23.1562 10.2235 23.0097 10.1911 22.9935C10.1587 22.9773 10.1322 23.445 10.1322 24.033C10.1322 25.0972 10.1333 25.1024 10.326 25.1757C11.0516 25.4516 12.6553 25.5745 13.4824 25.4176ZM30.8714 24.4304V23.527H29.4967H28.1219V20.424V17.3209H26.9043H25.6866V21.3274V25.3338H28.279H30.8714V24.4304ZM22.3872 8.59896C24.8069 8.43114 26.6207 8.11428 28.2168 7.58062C29.8068 7.04896 30.7462 6.40566 30.9563 5.7044C31.0372 5.43417 31.0314 5.33167 30.9183 5.03538C30.411 3.7071 27.5772 2.68656 23.2469 2.27279C21.3946 2.09576 18.0259 2.15315 16.2598 2.39172C13.5649 2.75584 11.3779 3.43217 10.4054 4.20217C8.43826 5.75988 10.5185 7.47316 15.3563 8.27956C17.4539 8.62922 20.1715 8.75268 22.3872 8.59896Z" fill="#00BCF2"/>
</g>
<defs>
<clipPath id="clip0_6_4431">
<rect width="40" height="40" fill="white" transform="translate(0.362305)"/>
</clipPath>
</defs>
</svg>
